<svg width="133" height="36" viewBox="0 0 133 36" fill="none" xmlns="http://www.w3.org/2000/svg">
<g id="Group 2">
<g id="flex">
<path id="Combined Shape" fill-rule="evenodd" clip-rule="evenodd" d="M0 18.1065C0 27.9411 8.05887 36 18.1065 36C27.9411 36 36 27.9411 36 18.1065C36 8.05887 27.9411 0 18.1065 0C8.05887 0 0 8.05887 0 18.1065ZM33.7263 18.1065C33.7263 26.6854 26.6854 33.7263 18.1065 33.7263C9.34353 33.7263 2.27368 26.714 2.27368 18.1065C2.27368 9.3146 9.3146 2.27368 18.1065 2.27368C26.714 2.27368 33.7263 9.34353 33.7263 18.1065Z" fill="white"/>
<path id="Oval 3" fill-rule="evenodd" clip-rule="evenodd" d="M16.4288 13.5917C16.7107 13.359 17.0649 13.2318 17.4305 13.2318C17.7922 13.2318 18.1429 13.3564 18.4235 13.5846L22.6335 17.0082C23.0074 17.3123 23.5156 17.3923 23.9648 17.218L25.9502 16.4474C26.1292 16.3779 26.3302 16.4036 26.4851 16.517C27.0788 16.9516 28.5751 18.0497 29.1289 18.482C30.4861 19.5416 31.486 20.25 31.486 20.25C31.486 20.25 31.4686 19.8601 31.486 19.4401C31.846 10.718 25.2324 4.39017 17.8022 4.50144C10.3803 4.61568 4.38132 10.5662 4.50178 18.8354C4.51309 19.5319 4.6193 20.25 4.6193 20.25L6.50953 18.8354L8.80622 17.1806C9.12242 16.9528 9.54513 16.9393 9.87525 17.1464L10.7991 17.7261C11.0088 17.8577 11.2793 17.8402 11.4703 17.6826L16.4288 13.5917Z" fill="white"/>
<path id="Oval 4" fill-rule="evenodd" clip-rule="evenodd" d="M16.6359 34.7904C18.8195 35.0437 20.6187 34.6644 21.2437 34.486C21.5288 34.4046 22.5941 34.144 22.8452 34.0596C23.6863 33.777 24.9699 33.1782 25.7013 32.7418C26.7957 32.0887 27.5685 31.4007 28.6388 30.4354C31.015 28.2924 32.625 24.3249 32.625 23.92C32.625 23.8287 28.2146 20.5068 26.9191 19.5329C26.7151 19.3796 26.4318 19.4032 26.253 19.5853C26.0843 19.7571 26.0583 20.0226 26.1911 20.2234C26.6343 20.894 27.5743 22.3246 27.6195 22.4617C27.792 22.9849 27.5465 23.2804 27.3009 23.1231C27.0553 22.9658 21.5646 19.2672 21.5646 19.2672L18.2802 16.9963C17.8686 16.7117 17.3068 17.0063 17.3068 17.5066C17.3068 17.5066 17.1957 19.1166 17.1957 20.1676C17.1957 20.5941 17.1518 21.1118 16.6359 21.246C16.3774 21.3132 15.7234 21.3527 15.7234 21.3527L10.1751 20.9334C9.79851 20.905 9.58736 21.358 9.85128 21.6281C9.85128 21.6281 17.1957 26.5849 17.1957 26.9884C17.1957 27.846 14.552 26.4718 12.4773 25.4639C9.95208 24.2372 7.14641 23.1341 6.44734 22.8633C6.34242 22.8227 6.22787 22.8316 6.13033 22.8877C5.52897 23.2335 3.35694 24.4869 3.37515 24.5407C4.0878 26.6437 5.97806 29.7235 8.8419 31.7745C9.987 32.5946 11.3079 33.3606 12.5939 33.8365C14.0645 34.3806 15.6064 34.7904 16.6359 34.7904Z" fill="white"/>
</g>
<path id="Devias Material Kit" d="M45.4453 25V10.7812H49.6445C50.901 10.7812 52.0143 11.0612 52.9844 11.6211C53.9609 12.181 54.7161 12.9753 55.25 14.0039C55.7839 15.0326 56.0508 16.2109 56.0508 17.5391V18.252C56.0508 19.5996 55.7806 20.7845 55.2402 21.8066C54.7064 22.8288 53.9414 23.6165 52.9453 24.1699C51.9557 24.7233 50.8197 25 49.5371 25H45.4453ZM47.916 12.7734V23.0273H49.5273C50.8229 23.0273 51.8158 22.6237 52.5059 21.8164C53.2025 21.0026 53.5573 19.8372 53.5703 18.3203V17.5293C53.5703 15.9863 53.235 14.8079 52.5645 13.9941C51.8939 13.1803 50.9206 12.7734 49.6445 12.7734H47.916ZM62.88 25.1953C61.3761 25.1953 60.1554 24.7233 59.2179 23.7793C58.2869 22.8288 57.8214 21.5658 57.8214 19.9902V19.6973C57.8214 18.6426 58.0232 17.7018 58.4269 16.875C58.837 16.0417 59.4099 15.3939 60.1456 14.9316C60.8813 14.4694 61.7016 14.2383 62.6066 14.2383C64.0454 14.2383 65.1554 14.6973 65.9366 15.6152C66.7244 16.5332 67.1183 17.832 67.1183 19.5117V20.4688H60.214C60.2856 21.3411 60.5753 22.0312 61.0831 22.5391C61.5974 23.0469 62.242 23.3008 63.0167 23.3008C64.1039 23.3008 64.9894 22.8613 65.673 21.9824L66.9523 23.2031C66.5291 23.8346 65.9627 24.3262 65.253 24.6777C64.5499 25.0228 63.7589 25.1953 62.88 25.1953ZM62.5968 16.1426C61.9457 16.1426 61.4184 16.3704 61.0148 16.8262C60.6176 17.2819 60.3637 17.9167 60.253 18.7305H64.7745V18.5547C64.7224 17.7604 64.5109 17.1615 64.1398 16.7578C63.7687 16.3477 63.2543 16.1426 62.5968 16.1426ZM72.5022 21.9922L74.7385 14.4336H77.1897L73.5276 25H71.467L67.7756 14.4336H70.2365L72.5022 21.9922ZM81.1478 25H78.7747V14.4336H81.1478V25ZM78.6283 11.6895C78.6283 11.3249 78.7422 11.0221 78.9701 10.7812C79.2044 10.5404 79.5365 10.4199 79.9661 10.4199C80.3958 10.4199 80.7279 10.5404 80.9622 10.7812C81.1966 11.0221 81.3138 11.3249 81.3138 11.6895C81.3138 12.0475 81.1966 12.347 80.9622 12.5879C80.7279 12.8223 80.3958 12.9395 79.9661 12.9395C79.5365 12.9395 79.2044 12.8223 78.9701 12.5879C78.7422 12.347 78.6283 12.0475 78.6283 11.6895ZM89.9985 25C89.8943 24.7982 89.8032 24.4694 89.725 24.0137C88.9698 24.8014 88.0454 25.1953 86.9516 25.1953C85.8904 25.1953 85.0245 24.8926 84.354 24.2871C83.6834 23.6816 83.3481 22.9329 83.3481 22.041C83.3481 20.9147 83.7648 20.0521 84.5981 19.4531C85.4379 18.8477 86.6359 18.5449 88.1918 18.5449H89.6469V17.8516C89.6469 17.3047 89.4939 16.8685 89.1879 16.543C88.8819 16.2109 88.4165 16.0449 87.7915 16.0449C87.2511 16.0449 86.8084 16.1816 86.4633 16.4551C86.1183 16.722 85.9457 17.0638 85.9457 17.4805H83.5727C83.5727 16.901 83.7648 16.3607 84.1489 15.8594C84.533 15.3516 85.0538 14.9544 85.7114 14.668C86.3754 14.3815 87.1144 14.2383 87.9282 14.2383C89.1651 14.2383 90.1515 14.5508 90.8872 15.1758C91.6228 15.7943 92.0004 16.6667 92.02 17.793V22.5586C92.02 23.5091 92.1534 24.2676 92.4204 24.834V25H89.9985ZM87.3911 23.291C87.8598 23.291 88.2993 23.1771 88.7094 22.9492C89.1261 22.7214 89.4386 22.4154 89.6469 22.0312V20.0391H88.3676C87.4887 20.0391 86.8279 20.1921 86.3852 20.498C85.9425 20.804 85.7211 21.237 85.7211 21.7969C85.7211 22.2526 85.8709 22.6172 86.1704 22.8906C86.4763 23.1576 86.8832 23.291 87.3911 23.291ZM100.373 22.1289C100.373 21.7057 100.197 21.3835 99.8453 21.1621C99.5002 20.9408 98.924 20.7454 98.1168 20.5762C97.3095 20.4069 96.6356 20.1921 96.0953 19.9316C94.9104 19.3587 94.3179 18.5286 94.3179 17.4414C94.3179 16.5299 94.702 15.7682 95.4703 15.1562C96.2385 14.5443 97.2151 14.2383 98.4 14.2383C99.663 14.2383 100.682 14.5508 101.457 15.1758C102.238 15.8008 102.628 16.6113 102.628 17.6074H100.255C100.255 17.1517 100.086 16.7741 99.7476 16.4746C99.4091 16.1686 98.9599 16.0156 98.4 16.0156C97.8791 16.0156 97.4527 16.1361 97.1207 16.377C96.7951 16.6178 96.6324 16.9401 96.6324 17.3438C96.6324 17.7083 96.7854 17.9915 97.0914 18.1934C97.3974 18.3952 98.0158 18.6003 98.9468 18.8086C99.8778 19.0104 100.607 19.2546 101.134 19.541C101.668 19.821 102.062 20.1595 102.316 20.5566C102.576 20.9538 102.707 21.4355 102.707 22.002C102.707 22.9525 102.313 23.724 101.525 24.3164C100.737 24.9023 99.7053 25.1953 98.4293 25.1953C97.5634 25.1953 96.7919 25.0391 96.1148 24.7266C95.4377 24.4141 94.9104 23.9844 94.5328 23.4375C94.1552 22.8906 93.9664 22.3014 93.9664 21.6699H96.271C96.3036 22.2298 96.5152 22.6628 96.9058 22.9688C97.2964 23.2682 97.814 23.418 98.4585 23.418C99.0835 23.418 99.5588 23.3008 99.8843 23.0664C100.21 22.8255 100.373 22.513 100.373 22.1289ZM113.963 18.8574L112.351 20.5664V25H109.881V10.7812H112.351V17.4512L113.719 15.7617L117.879 10.7812H120.867L115.584 17.0801L121.17 25H118.24L113.963 18.8574ZM124.737 25H122.364V14.4336H124.737V25ZM122.218 11.6895C122.218 11.3249 122.332 11.0221 122.559 10.7812C122.794 10.5404 123.126 10.4199 123.556 10.4199C123.985 10.4199 124.317 10.5404 124.552 10.7812C124.786 11.0221 124.903 11.3249 124.903 11.6895C124.903 12.0475 124.786 12.347 124.552 12.5879C124.317 12.8223 123.985 12.9395 123.556 12.9395C123.126 12.9395 122.794 12.8223 122.559 12.5879C122.332 12.347 122.218 12.0475 122.218 11.6895ZM130.248 11.8652V14.4336H132.113V16.1914H130.248V22.0898C130.248 22.4935 130.326 22.7865 130.482 22.9688C130.645 23.1445 130.932 23.2324 131.342 23.2324C131.615 23.2324 131.892 23.1999 132.172 23.1348V24.9707C131.632 25.1204 131.111 25.1953 130.609 25.1953C128.786 25.1953 127.875 24.1895 127.875 22.1777V16.1914H126.137V14.4336H127.875V11.8652H130.248Z" fill="white"/>
</g>
</svg>
